<mxfile host="app.diagrams.net" modified="2023-11-03T03:12:03.064Z" agent="Mozilla/5.0 (Windows NT 10.0; Win64; x64) AppleWebKit/537.36 (KHTML, like Gecko) Chrome/119.0.0.0 Safari/537.36" etag="onPEK7FznfHXNvnVizt6" version="22.0.8" type="github" pages="3">
  <diagram id="IKpEFJAXQdyOoHMasbJN" name="onValuesChange">
    <mxGraphModel dx="2202" dy="386" grid="1" gridSize="10" guides="1" tooltips="1" connect="1" arrows="1" fold="1" page="1" pageScale="1" pageWidth="850" pageHeight="1100" background="none" math="0" shadow="0">
      <root>
        <mxCell id="0" />
        <mxCell id="1" parent="0" />
        <mxCell id="69" value="" style="group;" parent="1" vertex="1" connectable="0">
          <mxGeometry x="430" y="2160" width="490" height="490" as="geometry" />
        </mxCell>
        <mxCell id="70" value="" style="rounded=0;whiteSpace=wrap;html=1;strokeColor=default;fontFamily=Helvetica;fontSize=12;fontColor=default;fillColor=default;" parent="69" vertex="1">
          <mxGeometry width="490" height="490" as="geometry" />
        </mxCell>
        <mxCell id="72" value="&lt;span style=&quot;font-size: 24px;&quot;&gt;FORM&lt;br&gt;&lt;/span&gt;" style="text;html=1;strokeColor=none;fillColor=none;align=center;verticalAlign=middle;whiteSpace=wrap;rounded=0;fontFamily=Helvetica;fontSize=12;fontColor=default;" parent="69" vertex="1">
          <mxGeometry x="183.75" y="15.71849427168576" width="122.5" height="23.57774140752864" as="geometry" />
        </mxCell>
        <mxCell id="109" value="&lt;div style=&quot;color: rgb(171, 178, 191); background-color: rgb(40, 44, 52); font-family: Consolas, &amp;quot;Courier New&amp;quot;, monospace; font-size: 14px; line-height: 19px;&quot;&gt;&lt;div style=&quot;line-height: 19px;&quot;&gt;&lt;div style=&quot;line-height: 19px;&quot;&gt;&lt;div style=&quot;line-height: 19px;&quot;&gt;&lt;span style=&quot;color: rgb(229, 192, 123);&quot;&gt;innerMethods&lt;/span&gt;.&lt;span style=&quot;color: rgb(97, 175, 239);&quot;&gt;innerSetCallbacks.&lt;/span&gt;&lt;/div&gt;&lt;div style=&quot;line-height: 19px;&quot;&gt;&lt;div style=&quot;line-height: 19px;&quot;&gt;&lt;span style=&quot;color: rgb(97, 175, 239);&quot;&gt;onValuesChange&lt;/span&gt;&lt;/div&gt;&lt;/div&gt;&lt;/div&gt;&lt;/div&gt;&lt;/div&gt;" style="rounded=0;whiteSpace=wrap;html=1;strokeColor=default;fontFamily=Helvetica;fontSize=12;fontColor=default;fillColor=default;" parent="69" vertex="1">
          <mxGeometry x="130" y="90" width="245" height="80" as="geometry" />
        </mxCell>
        <mxCell id="81" value="" style="group;" parent="1" vertex="1" connectable="0">
          <mxGeometry x="60" y="1240" width="490" height="760" as="geometry" />
        </mxCell>
        <mxCell id="82" value="" style="rounded=0;whiteSpace=wrap;html=1;strokeColor=default;fontFamily=Helvetica;fontSize=12;fontColor=default;fillColor=default;" parent="81" vertex="1">
          <mxGeometry width="490" height="760" as="geometry" />
        </mxCell>
        <mxCell id="84" value="&lt;span style=&quot;font-size: 24px;&quot;&gt;CONTROL&lt;br&gt;&lt;/span&gt;" style="text;html=1;strokeColor=none;fillColor=none;align=center;verticalAlign=middle;whiteSpace=wrap;rounded=0;fontFamily=Helvetica;fontSize=12;fontColor=default;" parent="81" vertex="1">
          <mxGeometry x="183.75" y="24.379705400981997" width="122.5" height="36.569558101473" as="geometry" />
        </mxCell>
        <mxCell id="83" value="&lt;div style=&quot;color: rgb(171, 178, 191); background-color: rgb(40, 44, 52); font-family: Consolas, &amp;quot;Courier New&amp;quot;, monospace; font-size: 14px; line-height: 19px;&quot;&gt;&lt;div style=&quot;line-height: 19px;&quot;&gt;&lt;div style=&quot;line-height: 19px;&quot;&gt;handleTrigger&lt;/div&gt;&lt;/div&gt;&lt;/div&gt;" style="rounded=0;whiteSpace=wrap;html=1;strokeColor=default;fontFamily=Helvetica;fontSize=12;fontColor=default;fillColor=default;" parent="81" vertex="1">
          <mxGeometry x="54.88" y="155.1" width="347.5" height="554.9" as="geometry" />
        </mxCell>
        <mxCell id="89" value="&lt;div style=&quot;color: rgb(171, 178, 191); background-color: rgb(40, 44, 52); font-family: Consolas, &amp;quot;Courier New&amp;quot;, monospace; font-size: 14px; line-height: 19px;&quot;&gt;&lt;div style=&quot;line-height: 19px;&quot;&gt;&lt;div style=&quot;line-height: 19px;&quot;&gt;&lt;div style=&quot;line-height: 19px;&quot;&gt;this.&lt;span style=&quot;color: #61afef;&quot;&gt;innerSetFieldValue&lt;/span&gt;(&lt;span style=&quot;color: #e5c07b;&quot;&gt;field&lt;/span&gt;, &lt;span style=&quot;color: #e06c75;font-style: italic;&quot;&gt;_value&lt;/span&gt;);&lt;/div&gt;&lt;/div&gt;&lt;/div&gt;&lt;/div&gt;" style="rounded=0;whiteSpace=wrap;html=1;strokeColor=default;fontFamily=Helvetica;fontSize=12;fontColor=default;fillColor=default;" parent="81" vertex="1">
          <mxGeometry x="61.75" y="186.12" width="333.75" height="43.88" as="geometry" />
        </mxCell>
        <mxCell id="Tb5aD46upvRKo3XChjmn-113" value="&lt;div style=&quot;color: rgb(171, 178, 191); background-color: rgb(40, 44, 52); font-family: Consolas, &amp;quot;Courier New&amp;quot;, monospace; font-size: 14px; line-height: 19px;&quot;&gt;&lt;div style=&quot;line-height: 19px;&quot;&gt;&lt;div style=&quot;line-height: 19px;&quot;&gt;&lt;div style=&quot;line-height: 19px;&quot;&gt;&lt;div style=&quot;line-height: 19px;&quot;&gt;this.&lt;span style=&quot;color: #61afef;&quot;&gt;validateField&lt;/span&gt;(&lt;span style=&quot;color: #e5c07b;&quot;&gt;trigger&lt;/span&gt;);&lt;/div&gt;&lt;/div&gt;&lt;/div&gt;&lt;/div&gt;&lt;/div&gt;" style="rounded=0;whiteSpace=wrap;html=1;strokeColor=default;fontFamily=Helvetica;fontSize=12;fontColor=default;fillColor=default;" parent="81" vertex="1">
          <mxGeometry x="61.75" y="470" width="333.75" height="220" as="geometry" />
        </mxCell>
        <mxCell id="D-etDBxDUlBy1msMGOkA-113" value="&lt;div style=&quot;background-color: rgb(40, 44, 52); font-family: Consolas, &amp;quot;Courier New&amp;quot;, monospace; font-size: 14px; line-height: 19px;&quot;&gt;&lt;div style=&quot;line-height: 19px;&quot;&gt;&lt;div style=&quot;line-height: 19px;&quot;&gt;&lt;div style=&quot;line-height: 19px;&quot;&gt;&lt;div style=&quot;font-family: Menlo, Monaco, &amp;quot;Courier New&amp;quot;, monospace; font-size: 12px; line-height: 18px;&quot;&gt;&lt;div style=&quot;&quot;&gt;&lt;div style=&quot;color: rgb(171, 178, 191); font-family: Consolas, &amp;quot;Courier New&amp;quot;, monospace; font-size: 14px; line-height: 19px;&quot;&gt;&lt;div style=&quot;line-height: 19px;&quot;&gt;&lt;div style=&quot;line-height: 19px;&quot;&gt;&lt;span style=&quot;color: #61afef;&quot;&gt;updateFormItem&lt;/span&gt;&lt;/div&gt;&lt;/div&gt;&lt;/div&gt;&lt;/div&gt;&lt;/div&gt;&lt;/div&gt;&lt;/div&gt;&lt;/div&gt;&lt;/div&gt;" style="rounded=0;whiteSpace=wrap;html=1;strokeColor=default;fontFamily=Helvetica;fontSize=12;fontColor=default;fillColor=default;" parent="81" vertex="1">
          <mxGeometry x="70.25" y="500" width="316.75" height="30" as="geometry" />
        </mxCell>
        <mxCell id="91" value="" style="group;" parent="1" vertex="1" connectable="0">
          <mxGeometry x="650" y="1260" width="490" height="740" as="geometry" />
        </mxCell>
        <mxCell id="92" value="" style="rounded=0;whiteSpace=wrap;html=1;strokeColor=default;fontFamily=Helvetica;fontSize=12;fontColor=default;fillColor=default;" parent="91" vertex="1">
          <mxGeometry width="490" height="740" as="geometry" />
        </mxCell>
        <mxCell id="107" style="edgeStyle=none;html=1;exitX=0.5;exitY=1;exitDx=0;exitDy=0;fontFamily=Helvetica;fontSize=24;fontColor=default;" parent="91" source="94" target="106" edge="1">
          <mxGeometry relative="1" as="geometry" />
        </mxCell>
        <mxCell id="94" value="&lt;div style=&quot;color: rgb(171, 178, 191); background-color: rgb(40, 44, 52); font-family: Consolas, &amp;quot;Courier New&amp;quot;, monospace; font-size: 14px; line-height: 19px;&quot;&gt;&lt;div style=&quot;line-height: 19px;&quot;&gt;&lt;br&gt;&lt;/div&gt;&lt;/div&gt;" style="rounded=0;whiteSpace=wrap;html=1;strokeColor=default;fontFamily=Helvetica;fontSize=12;fontColor=default;fillColor=default;" parent="91" vertex="1">
          <mxGeometry x="122.5" y="70" width="245" height="80" as="geometry" />
        </mxCell>
        <mxCell id="95" value="&lt;span style=&quot;font-size: 24px;&quot;&gt;STORE&lt;br&gt;&lt;/span&gt;" style="text;html=1;strokeColor=none;fillColor=none;align=center;verticalAlign=middle;whiteSpace=wrap;rounded=0;fontFamily=Helvetica;fontSize=12;fontColor=default;" parent="91" vertex="1">
          <mxGeometry x="183.75" y="15.71849427168576" width="122.5" height="23.57774140752864" as="geometry" />
        </mxCell>
        <mxCell id="96" value="&#xa;&lt;div style=&quot;color: rgb(171, 178, 191); background-color: rgb(40, 44, 52); font-family: Consolas, &amp;quot;Courier New&amp;quot;, monospace; font-weight: normal; font-size: 14px; line-height: 19px;&quot;&gt;&lt;div&gt;&lt;span style=&quot;color: #61afef;&quot;&gt;innerSetFieldValue&lt;/span&gt;&lt;/div&gt;&lt;/div&gt;&#xa;&#xa;" style="text;html=1;strokeColor=none;fillColor=none;align=center;verticalAlign=middle;whiteSpace=wrap;rounded=0;fontFamily=Helvetica;fontSize=12;fontColor=default;" parent="91" vertex="1">
          <mxGeometry x="183.75" y="100" width="122.5" height="20" as="geometry" />
        </mxCell>
        <mxCell id="113" style="edgeStyle=none;html=1;exitX=0.5;exitY=1;exitDx=0;exitDy=0;fontFamily=Helvetica;fontSize=24;fontColor=default;" parent="91" source="106" target="112" edge="1">
          <mxGeometry relative="1" as="geometry" />
        </mxCell>
        <mxCell id="106" value="&lt;div style=&quot;color: rgb(171, 178, 191); background-color: rgb(40, 44, 52); font-family: Consolas, &amp;quot;Courier New&amp;quot;, monospace; font-size: 14px; line-height: 19px;&quot;&gt;&lt;div style=&quot;line-height: 19px;&quot;&gt;&lt;div style=&quot;line-height: 19px;&quot;&gt;&lt;span style=&quot;color: #61afef;&quot;&gt;triggerValuesChange&lt;/span&gt;&lt;/div&gt;&lt;/div&gt;&lt;/div&gt;" style="rounded=0;whiteSpace=wrap;html=1;strokeColor=default;fontFamily=Helvetica;fontSize=12;fontColor=default;fillColor=default;" parent="91" vertex="1">
          <mxGeometry x="122.5" y="205" width="245" height="80" as="geometry" />
        </mxCell>
        <mxCell id="108" value="&lt;div style=&quot;color: rgb(171, 178, 191); background-color: rgb(40, 44, 52); font-family: Consolas, &amp;quot;Courier New&amp;quot;, monospace; font-size: 14px; line-height: 19px;&quot;&gt;&lt;div style=&quot;line-height: 19px;&quot;&gt;&lt;div style=&quot;line-height: 19px;&quot;&gt;&lt;div style=&quot;line-height: 19px;&quot;&gt;&lt;span style=&quot;color: #61afef;&quot;&gt;innerSetCallbacks&lt;/span&gt;&lt;/div&gt;&lt;/div&gt;&lt;/div&gt;&lt;/div&gt;" style="rounded=0;whiteSpace=wrap;html=1;strokeColor=default;fontFamily=Helvetica;fontSize=12;fontColor=default;fillColor=default;" parent="91" vertex="1">
          <mxGeometry x="130" y="620" width="245" height="80" as="geometry" />
        </mxCell>
        <mxCell id="112" value="&lt;div style=&quot;color: rgb(171, 178, 191); background-color: rgb(40, 44, 52); font-family: Consolas, &amp;quot;Courier New&amp;quot;, monospace; font-size: 14px; line-height: 19px;&quot;&gt;&lt;div style=&quot;line-height: 19px;&quot;&gt;&lt;div style=&quot;line-height: 19px;&quot;&gt;&lt;div style=&quot;line-height: 19px;&quot;&gt;&lt;span style=&quot;color: #61afef;&quot;&gt;this.callback.&lt;/span&gt;&lt;span style=&quot;color: rgb(97, 175, 239);&quot;&gt;onValuesChange&lt;/span&gt;&lt;/div&gt;&lt;/div&gt;&lt;/div&gt;&lt;/div&gt;" style="rounded=0;whiteSpace=wrap;html=1;strokeColor=default;fontFamily=Helvetica;fontSize=12;fontColor=default;fillColor=default;" parent="91" vertex="1">
          <mxGeometry x="122.5" y="340" width="245" height="80" as="geometry" />
        </mxCell>
        <mxCell id="98" style="edgeStyle=none;html=1;exitX=1;exitY=0.5;exitDx=0;exitDy=0;entryX=0;entryY=0.5;entryDx=0;entryDy=0;fontFamily=Helvetica;fontSize=24;fontColor=default;" parent="1" source="89" target="94" edge="1">
          <mxGeometry relative="1" as="geometry" />
        </mxCell>
        <mxCell id="111" style="edgeStyle=none;html=1;exitX=1;exitY=0.5;exitDx=0;exitDy=0;entryX=0;entryY=0.5;entryDx=0;entryDy=0;fontFamily=Helvetica;fontSize=24;fontColor=default;" parent="1" source="109" target="108" edge="1">
          <mxGeometry relative="1" as="geometry" />
        </mxCell>
        <mxCell id="NjMZ-RpxFZY-UqjfMa2i-117" value="" style="group;" parent="1" vertex="1" connectable="0">
          <mxGeometry x="-230" y="2150" width="490" height="490" as="geometry" />
        </mxCell>
        <mxCell id="NjMZ-RpxFZY-UqjfMa2i-118" value="" style="rounded=0;whiteSpace=wrap;html=1;strokeColor=default;fontFamily=Helvetica;fontSize=12;fontColor=default;fillColor=default;" parent="NjMZ-RpxFZY-UqjfMa2i-117" vertex="1">
          <mxGeometry width="490" height="490" as="geometry" />
        </mxCell>
        <mxCell id="NjMZ-RpxFZY-UqjfMa2i-119" value="&lt;span style=&quot;font-size: 24px;&quot;&gt;Form.Item&lt;br&gt;&lt;/span&gt;" style="text;html=1;strokeColor=none;fillColor=none;align=center;verticalAlign=middle;whiteSpace=wrap;rounded=0;fontFamily=Helvetica;fontSize=12;fontColor=default;" parent="NjMZ-RpxFZY-UqjfMa2i-117" vertex="1">
          <mxGeometry x="183.75" y="15.71849427168576" width="122.5" height="23.57774140752864" as="geometry" />
        </mxCell>
        <mxCell id="NjMZ-RpxFZY-UqjfMa2i-120" value="&lt;div style=&quot;color: rgb(171, 178, 191); background-color: rgb(40, 44, 52); font-family: Consolas, &amp;quot;Courier New&amp;quot;, monospace; font-size: 14px; line-height: 19px;&quot;&gt;&lt;div style=&quot;line-height: 19px;&quot;&gt;&lt;div style=&quot;line-height: 19px;&quot;&gt;&lt;div style=&quot;line-height: 19px;&quot;&gt;updateFormItem&lt;br&gt;&lt;/div&gt;&lt;/div&gt;&lt;/div&gt;&lt;/div&gt;" style="rounded=0;whiteSpace=wrap;html=1;strokeColor=default;fontFamily=Helvetica;fontSize=12;fontColor=default;fillColor=default;" parent="NjMZ-RpxFZY-UqjfMa2i-117" vertex="1">
          <mxGeometry x="90" y="90" width="310" height="50" as="geometry" />
        </mxCell>
        <mxCell id="vy6CoUOnXbUYciB5LYkZ-113" style="edgeStyle=orthogonalEdgeStyle;rounded=0;orthogonalLoop=1;jettySize=auto;html=1;exitX=0;exitY=0.5;exitDx=0;exitDy=0;" parent="1" source="D-etDBxDUlBy1msMGOkA-113" target="NjMZ-RpxFZY-UqjfMa2i-120" edge="1">
          <mxGeometry relative="1" as="geometry" />
        </mxCell>
      </root>
    </mxGraphModel>
  </diagram>
  <diagram name="onSubmit" id="niWLzvq-EdSnXIQBMatt">
    <mxGraphModel dx="1690" dy="758" grid="1" gridSize="10" guides="1" tooltips="1" connect="1" arrows="1" fold="1" page="1" pageScale="1" pageWidth="850" pageHeight="1100" background="none" math="0" shadow="0">
      <root>
        <mxCell id="wr9pQKqONIE5KZ0gKn6f-0" />
        <mxCell id="wr9pQKqONIE5KZ0gKn6f-1" parent="wr9pQKqONIE5KZ0gKn6f-0" />
        <mxCell id="wr9pQKqONIE5KZ0gKn6f-2" value="" style="group;" parent="wr9pQKqONIE5KZ0gKn6f-1" vertex="1" connectable="0">
          <mxGeometry x="150" y="1420" width="490" height="490" as="geometry" />
        </mxCell>
        <mxCell id="wr9pQKqONIE5KZ0gKn6f-3" value="" style="rounded=0;whiteSpace=wrap;html=1;strokeColor=default;fontFamily=Helvetica;fontSize=12;fontColor=default;fillColor=default;" parent="wr9pQKqONIE5KZ0gKn6f-2" vertex="1">
          <mxGeometry width="490" height="490" as="geometry" />
        </mxCell>
        <mxCell id="wr9pQKqONIE5KZ0gKn6f-4" value="&lt;span style=&quot;font-size: 24px;&quot;&gt;FORM&lt;br&gt;&lt;/span&gt;" style="text;html=1;strokeColor=none;fillColor=none;align=center;verticalAlign=middle;whiteSpace=wrap;rounded=0;fontFamily=Helvetica;fontSize=12;fontColor=default;" parent="wr9pQKqONIE5KZ0gKn6f-2" vertex="1">
          <mxGeometry x="183.75" y="15.71849427168576" width="122.5" height="23.57774140752864" as="geometry" />
        </mxCell>
        <mxCell id="wr9pQKqONIE5KZ0gKn6f-5" value="&lt;div style=&quot;background-color: rgb(40, 44, 52); font-family: Consolas, &amp;quot;Courier New&amp;quot;, monospace; font-size: 14px; line-height: 19px; color: rgb(171, 178, 191);&quot;&gt;&lt;div style=&quot;line-height: 19px;&quot;&gt;&lt;div style=&quot;line-height: 19px;&quot;&gt;&lt;div style=&quot;line-height: 19px;&quot;&gt;&lt;div style=&quot;font-family: Menlo, Monaco, &amp;quot;Courier New&amp;quot;, monospace; font-size: 12px; line-height: 18px;&quot;&gt;&lt;div&gt;&lt;span style=&quot;color: #e5c07b;&quot;&gt;innerMethods&lt;/span&gt;.&lt;span style=&quot;color: #61afef;&quot;&gt;innerSetCallbacks&lt;/span&gt;({&lt;/div&gt;&lt;div&gt;  &lt;span style=&quot;color: #61afef;&quot;&gt;onSubmit&lt;/span&gt;: () &lt;span style=&quot;color: #c678dd;&quot;&gt;=&amp;gt;&lt;/span&gt; {}&lt;/div&gt;&lt;div&gt;});&lt;/div&gt;&lt;/div&gt;&lt;/div&gt;&lt;/div&gt;&lt;/div&gt;&lt;/div&gt;" style="rounded=0;whiteSpace=wrap;html=1;strokeColor=default;fontFamily=Helvetica;fontSize=12;fontColor=default;fillColor=default;" parent="wr9pQKqONIE5KZ0gKn6f-2" vertex="1">
          <mxGeometry x="130" y="90" width="245" height="80" as="geometry" />
        </mxCell>
        <mxCell id="PwSs_GgSIJuXpOcLG5Ot-0" value="&lt;div style=&quot;background-color: rgb(40, 44, 52); font-family: Consolas, &amp;quot;Courier New&amp;quot;, monospace; font-size: 14px; line-height: 19px; color: rgb(171, 178, 191);&quot;&gt;&lt;div style=&quot;line-height: 19px;&quot;&gt;&lt;div style=&quot;line-height: 19px;&quot;&gt;&lt;div style=&quot;line-height: 19px;&quot;&gt;&lt;div style=&quot;font-family: Menlo, Monaco, &amp;quot;Courier New&amp;quot;, monospace; font-size: 12px; line-height: 18px;&quot;&gt;&lt;div style=&quot;line-height: 18px;&quot;&gt;&lt;div&gt;&amp;lt;&lt;span style=&quot;color: #e5c07b;&quot;&gt;Wrapper&lt;/span&gt;&lt;/div&gt;&lt;div&gt;&lt;span style=&quot;color: #d19a66;font-style: italic;&quot;&gt;onSubmit&lt;/span&gt;&lt;span style=&quot;color: #56b6c2;&quot;&gt;=&lt;/span&gt;&lt;span style=&quot;color: #c678dd;&quot;&gt;{&lt;/span&gt;(&lt;span style=&quot;color: #e06c75;font-style: italic;&quot;&gt;e&lt;/span&gt;) &lt;span style=&quot;color: #c678dd;&quot;&gt;=&amp;gt;&lt;/span&gt; {&lt;/div&gt;&lt;div&gt;  &lt;span style=&quot;color: #e5c07b;&quot;&gt;formInstance&lt;/span&gt;.&lt;span style=&quot;color: #61afef;&quot;&gt;submit&lt;/span&gt;();&lt;/div&gt;&lt;div&gt;}&lt;span style=&quot;color: #c678dd;&quot;&gt;}&lt;/span&gt;&lt;/div&gt;&lt;div&gt;&amp;gt;&lt;/div&gt;&lt;/div&gt;&lt;/div&gt;&lt;/div&gt;&lt;/div&gt;&lt;/div&gt;&lt;/div&gt;" style="rounded=0;whiteSpace=wrap;html=1;strokeColor=default;fontFamily=Helvetica;fontSize=12;fontColor=default;fillColor=default;" parent="wr9pQKqONIE5KZ0gKn6f-2" vertex="1">
          <mxGeometry x="135" y="200" width="240" height="110" as="geometry" />
        </mxCell>
        <mxCell id="wr9pQKqONIE5KZ0gKn6f-13" value="" style="group;" parent="wr9pQKqONIE5KZ0gKn6f-1" vertex="1" connectable="0">
          <mxGeometry x="690" y="1270" width="490" height="740" as="geometry" />
        </mxCell>
        <mxCell id="wr9pQKqONIE5KZ0gKn6f-14" value="" style="rounded=0;whiteSpace=wrap;html=1;strokeColor=default;fontFamily=Helvetica;fontSize=12;fontColor=default;fillColor=default;" parent="wr9pQKqONIE5KZ0gKn6f-13" vertex="1">
          <mxGeometry width="490" height="740" as="geometry" />
        </mxCell>
        <mxCell id="hVibTTQIVhq0X6SmjSsc-0" style="edgeStyle=none;html=1;exitX=0.5;exitY=1;exitDx=0;exitDy=0;" parent="wr9pQKqONIE5KZ0gKn6f-13" source="wr9pQKqONIE5KZ0gKn6f-16" target="PwSs_GgSIJuXpOcLG5Ot-10" edge="1">
          <mxGeometry relative="1" as="geometry" />
        </mxCell>
        <mxCell id="wr9pQKqONIE5KZ0gKn6f-16" value="&lt;div style=&quot;color: rgb(171, 178, 191); background-color: rgb(40, 44, 52); font-family: Consolas, &amp;quot;Courier New&amp;quot;, monospace; font-size: 14px; line-height: 19px;&quot;&gt;&lt;div style=&quot;line-height: 19px;&quot;&gt;&lt;br&gt;&lt;/div&gt;&lt;/div&gt;" style="rounded=0;whiteSpace=wrap;html=1;strokeColor=default;fontFamily=Helvetica;fontSize=12;fontColor=default;fillColor=default;" parent="wr9pQKqONIE5KZ0gKn6f-13" vertex="1">
          <mxGeometry x="122.5" y="70" width="245" height="70" as="geometry" />
        </mxCell>
        <mxCell id="wr9pQKqONIE5KZ0gKn6f-17" value="&lt;span style=&quot;font-size: 24px;&quot;&gt;STORE&lt;br&gt;&lt;/span&gt;" style="text;html=1;strokeColor=none;fillColor=none;align=center;verticalAlign=middle;whiteSpace=wrap;rounded=0;fontFamily=Helvetica;fontSize=12;fontColor=default;" parent="wr9pQKqONIE5KZ0gKn6f-13" vertex="1">
          <mxGeometry x="183.75" y="15.71849427168576" width="122.5" height="23.57774140752864" as="geometry" />
        </mxCell>
        <mxCell id="wr9pQKqONIE5KZ0gKn6f-18" value="&lt;div style=&quot;background-color: rgb(40, 44, 52); font-family: Menlo, Monaco, &amp;quot;Courier New&amp;quot;, monospace; line-height: 18px;&quot;&gt;&lt;font color=&quot;#c678dd&quot;&gt;submit&lt;/font&gt;&lt;/div&gt;" style="text;html=1;strokeColor=none;fillColor=none;align=center;verticalAlign=middle;whiteSpace=wrap;rounded=0;fontFamily=Helvetica;fontSize=12;fontColor=default;" parent="wr9pQKqONIE5KZ0gKn6f-13" vertex="1">
          <mxGeometry x="158.13" y="95" width="173.75" height="20" as="geometry" />
        </mxCell>
        <mxCell id="wr9pQKqONIE5KZ0gKn6f-21" value="&lt;div style=&quot;color: rgb(171, 178, 191); background-color: rgb(40, 44, 52); font-family: Consolas, &amp;quot;Courier New&amp;quot;, monospace; font-size: 14px; line-height: 19px;&quot;&gt;&lt;div style=&quot;line-height: 19px;&quot;&gt;&lt;div style=&quot;line-height: 19px;&quot;&gt;&lt;div style=&quot;line-height: 19px;&quot;&gt;&lt;span style=&quot;color: #61afef;&quot;&gt;innerSetCallbacks&lt;/span&gt;&lt;/div&gt;&lt;/div&gt;&lt;/div&gt;&lt;/div&gt;" style="rounded=0;whiteSpace=wrap;html=1;strokeColor=default;fontFamily=Helvetica;fontSize=12;fontColor=default;fillColor=default;" parent="wr9pQKqONIE5KZ0gKn6f-13" vertex="1">
          <mxGeometry x="130" y="620" width="245" height="80" as="geometry" />
        </mxCell>
        <mxCell id="PwSs_GgSIJuXpOcLG5Ot-10" value="&lt;div style=&quot;color: rgb(171, 178, 191); background-color: rgb(40, 44, 52); font-family: Consolas, &amp;quot;Courier New&amp;quot;, monospace; font-size: 14px; line-height: 19px;&quot;&gt;&lt;div style=&quot;line-height: 19px;&quot;&gt;callbacks.onSubmit&lt;/div&gt;&lt;/div&gt;" style="rounded=0;whiteSpace=wrap;html=1;strokeColor=default;fontFamily=Helvetica;fontSize=12;fontColor=default;fillColor=default;" parent="wr9pQKqONIE5KZ0gKn6f-13" vertex="1">
          <mxGeometry x="122.5" y="210" width="245" height="80" as="geometry" />
        </mxCell>
        <mxCell id="wr9pQKqONIE5KZ0gKn6f-24" style="edgeStyle=none;html=1;exitX=1;exitY=0.5;exitDx=0;exitDy=0;entryX=0;entryY=0.5;entryDx=0;entryDy=0;fontFamily=Helvetica;fontSize=24;fontColor=default;" parent="wr9pQKqONIE5KZ0gKn6f-1" source="wr9pQKqONIE5KZ0gKn6f-5" target="wr9pQKqONIE5KZ0gKn6f-21" edge="1">
          <mxGeometry relative="1" as="geometry" />
        </mxCell>
        <mxCell id="PwSs_GgSIJuXpOcLG5Ot-2" style="edgeStyle=none;html=1;exitX=1;exitY=0.5;exitDx=0;exitDy=0;entryX=0;entryY=0.5;entryDx=0;entryDy=0;" parent="wr9pQKqONIE5KZ0gKn6f-1" source="PwSs_GgSIJuXpOcLG5Ot-0" target="wr9pQKqONIE5KZ0gKn6f-16" edge="1">
          <mxGeometry relative="1" as="geometry" />
        </mxCell>
      </root>
    </mxGraphModel>
  </diagram>
  <diagram id="SBXe6t3lLoEwpBL6qb3A" name="第 3 页">
    <mxGraphModel dx="676" dy="743" grid="1" gridSize="10" guides="1" tooltips="1" connect="1" arrows="1" fold="1" page="1" pageScale="1" pageWidth="827" pageHeight="1169" background="none" math="0" shadow="0">
      <root>
        <mxCell id="0" />
        <mxCell id="1" parent="0" />
        <mxCell id="8RdPPuN7rYn8out7np34-6" value="" style="group" vertex="1" connectable="0" parent="1">
          <mxGeometry x="50" y="140" width="370" height="370" as="geometry" />
        </mxCell>
        <mxCell id="8RdPPuN7rYn8out7np34-4" value="" style="whiteSpace=wrap;html=1;aspect=fixed;" vertex="1" parent="8RdPPuN7rYn8out7np34-6">
          <mxGeometry width="370" height="370" as="geometry" />
        </mxCell>
        <mxCell id="8RdPPuN7rYn8out7np34-5" value="Control" style="text;html=1;strokeColor=none;fillColor=none;align=center;verticalAlign=middle;whiteSpace=wrap;rounded=0;" vertex="1" parent="8RdPPuN7rYn8out7np34-6">
          <mxGeometry x="124.1613725490196" y="0.004901960784313708" width="87.05882352941177" height="29.019607843137255" as="geometry" />
        </mxCell>
        <mxCell id="8RdPPuN7rYn8out7np34-7" value="" style="rounded=0;whiteSpace=wrap;html=1;" vertex="1" parent="8RdPPuN7rYn8out7np34-6">
          <mxGeometry x="21.76" y="47.16" width="308.24" height="272.84" as="geometry" />
        </mxCell>
        <mxCell id="CtBZBhfEQbuQoPI8cLes-1" value="handleTrigger" style="text;html=1;strokeColor=none;fillColor=none;align=center;verticalAlign=middle;whiteSpace=wrap;rounded=0;" vertex="1" parent="8RdPPuN7rYn8out7np34-6">
          <mxGeometry x="154.11607843137256" y="47.164313725490196" width="43.529411764705884" height="21.764705882352942" as="geometry" />
        </mxCell>
        <mxCell id="VqSYtuV3i4Xfq_hTvh4L-13" value="" style="group" vertex="1" connectable="0" parent="8RdPPuN7rYn8out7np34-6">
          <mxGeometry x="25.39" y="116.08" width="284.61" height="73.92" as="geometry" />
        </mxCell>
        <mxCell id="VqSYtuV3i4Xfq_hTvh4L-14" value="" style="rounded=0;whiteSpace=wrap;html=1;" vertex="1" parent="VqSYtuV3i4Xfq_hTvh4L-13">
          <mxGeometry width="284.61" height="73.92" as="geometry" />
        </mxCell>
        <mxCell id="VqSYtuV3i4Xfq_hTvh4L-15" value="this.innerSetFieldValue&lt;span style=&quot;border-color: var(--border-color); color: rgb(171, 178, 191); font-family: Consolas, &amp;quot;Courier New&amp;quot;, monospace; font-size: 14px; background-color: rgb(40, 44, 52);&quot;&gt;(&lt;/span&gt;&lt;span style=&quot;border-color: var(--border-color); font-family: Consolas, &amp;quot;Courier New&amp;quot;, monospace; font-size: 14px; background-color: rgb(40, 44, 52); color: rgb(229, 192, 123);&quot;&gt;field&lt;/span&gt;&lt;span style=&quot;border-color: var(--border-color); color: rgb(171, 178, 191); font-family: Consolas, &amp;quot;Courier New&amp;quot;, monospace; font-size: 14px; background-color: rgb(40, 44, 52);&quot;&gt;,&amp;nbsp;&lt;/span&gt;&lt;span style=&quot;border-color: var(--border-color); font-family: Consolas, &amp;quot;Courier New&amp;quot;, monospace; font-size: 14px; background-color: rgb(40, 44, 52); color: rgb(224, 108, 117); font-style: italic;&quot;&gt;_value&lt;/span&gt;&lt;span style=&quot;border-color: var(--border-color); color: rgb(171, 178, 191); font-family: Consolas, &amp;quot;Courier New&amp;quot;, monospace; font-size: 14px; background-color: rgb(40, 44, 52);&quot;&gt;);&lt;/span&gt;" style="text;html=1;strokeColor=none;fillColor=none;align=center;verticalAlign=middle;whiteSpace=wrap;rounded=0;" vertex="1" parent="VqSYtuV3i4Xfq_hTvh4L-13">
          <mxGeometry x="111.81107142857142" width="60.98785714285715" height="31.680000000000003" as="geometry" />
        </mxCell>
        <mxCell id="VqSYtuV3i4Xfq_hTvh4L-17" value="" style="group" vertex="1" connectable="0" parent="1">
          <mxGeometry x="440" y="218" width="280" height="340" as="geometry" />
        </mxCell>
        <mxCell id="VqSYtuV3i4Xfq_hTvh4L-18" value="" style="rounded=0;whiteSpace=wrap;html=1;" vertex="1" parent="VqSYtuV3i4Xfq_hTvh4L-17">
          <mxGeometry width="280" height="340" as="geometry" />
        </mxCell>
        <mxCell id="VqSYtuV3i4Xfq_hTvh4L-19" value="Control" style="text;html=1;strokeColor=none;fillColor=none;align=center;verticalAlign=middle;whiteSpace=wrap;rounded=0;" vertex="1" parent="VqSYtuV3i4Xfq_hTvh4L-17">
          <mxGeometry x="110" width="60" height="30" as="geometry" />
        </mxCell>
      </root>
    </mxGraphModel>
  </diagram>
</mxfile>
